<svg xmlns="http://www.w3.org/2000/svg" width="128" height="128" viewBox="0 0 24 24">
  <!-- background rounded square -->
  <rect x="2" y="2" width="20" height="20" rx="3" ry="3" fill="#6D28D9"/>
  <!-- speech bubble filling most space -->
  <path d="M4.5 6.0h15a1.5 1.5 0 0 1 1.5 1.5v7.5a1.5 1.5 0 0 1-1.5 1.5h-8l-3.3 2.6c-.3.25-.8 0-.8-.4V16H4.5A1.5 1.5 0 0 1 3 14.5v-6A1.5 1.5 0 0 1 4.5 6z" fill="#1F2937"/>
  <!-- caret '>' -->
  <path d="M8 10.2l3.8 2-3.8 2" fill="none" stroke="#F9FAFB" stroke-width="2.2" stroke-linecap="round" stroke-linejoin="round"/>
  <!-- equal lines '==' -->
  <path d="M13.5 10.5h4M13.5 12.8h4" fill="none" stroke="#F9FAFB" stroke-width="2.2" stroke-linecap="round"/>
</svg>