<svg xmlns="http://www.w3.org/2000/svg" width="128" height="128" viewBox="0 0 24 24">
  <defs>
    <filter id="s" x="-20%" y="-20%" width="140%" height="140%">
      <feDropShadow dx="0" dy="1" stdDeviation="0.8" flood-opacity="0.25"/>
    </filter>
  </defs>
  <!-- background card -->
  <rect x="2" y="2" width="20" height="20" rx="3" ry="3" fill="#6D28D9"/>
  <!-- speech bubble -->
  <g filter="url(#s)">
    <path d="M5.5 7.5h13a1.5 1.5 0 0 1 1.5 1.5v5a1.5 1.5 0 0 1-1.5 1.5h-6.8l-2.9 2.3c-.3.24-.8 0-.8-.38V15.5H5.5A1.5 1.5 0 0 1 4 14V9a1.5 1.5 0 0 1 1.5-1.5z" fill="#111827"/>
    <!-- prompt caret '>' -->
    <path d="M9 10l3 2-3 2" fill="none" stroke="#F9FAFB" stroke-width="1.7" stroke-linecap="round" stroke-linejoin="round"/>
    <!-- markdown lines -->
    <path d="M13.5 10.25h3.2M13.5 12h3.2" fill="none" stroke="#9CA3AF" stroke-width="1.3" stroke-linecap="round"/>
  </g>
  <!-- small YMD label -->
  <rect x="3.2" y="3.2" width="5.6" height="2.2" rx="0.6" fill="#10B981"/>
  <text x="6" y="4.9" text-anchor="middle" font-size="1.6" fill="#F9FAFB" font-family="ui-monospace, SFMono-Regular, Menlo, Consolas, monospace">ymd</text>
</svg>